<?xml version="1.0" encoding="UTF-8"?>
<svg id="_レイヤー_1" data-name="レイヤー 1" xmlns="http://www.w3.org/2000/svg" viewBox="0 0 453.35 210.73">
  <defs>
    <style>
      .cls-1 {
        fill: #040000;
      }

      .cls-2 {
        fill: #b4b3b3;
      }

      .cls-3 {
        fill: #b8292d;
      }
    </style>
  </defs>
  <rect class="cls-2" x="104" y="34.28" width="5" height="153.91"/>
  <rect class="cls-2" x="98" y="34.28" width="5" height="153.91"/>
  <rect class="cls-2" x="92" y="34.28" width="5" height="153.91"/>
  <rect class="cls-2" x="86" y="34.28" width="5" height="153.91"/>
  <rect class="cls-2" x="80" y="34.28" width="5" height="153.91"/>
  <rect class="cls-3" y="125.39" width="80" height="5"/>
  <rect class="cls-3" x="0" y="131.39" width="80" height="5"/>
  <rect class="cls-3" x="0" y="137.39" width="80" height="5"/>
  <rect class="cls-3" x="0" y="143.39" width="80" height="5"/>
  <rect class="cls-3" y="149.39" width="80" height="5"/>
  <rect class="cls-3" x="109" y="125.39" width="15.85" height="5"/>
  <rect class="cls-3" x="109" y="131.39" width="15.85" height="5"/>
  <rect class="cls-3" x="109" y="137.39" width="15.85" height="5"/>
  <rect class="cls-3" x="109" y="143.39" width="15.85" height="5"/>
  <rect class="cls-3" x="109" y="149.39" width="15.85" height="5"/>
  <rect class="cls-2" x="80" y="34.28" width="5" height="153.91"/>
  <rect class="cls-2" x="117.28" y="103.93" width="89.75" height="5"/>
  <rect class="cls-2" x="117.28" y="97.93" width="89.75" height="5"/>
  <rect class="cls-2" x="117.28" y="91.93" width="89.75" height="5"/>
  <rect class="cls-2" x="117.28" y="85.93" width="89.75" height="5"/>
  <rect class="cls-2" x="117.28" y="79.93" width="89.75" height="5"/>
  <polygon class="cls-2" points="80 34.28 80 34.68 80.35 34.28 80 34.28"/>
  <g>
    <path class="cls-1" d="m17.77.33c0,.93,0,1.92-.03,2.99s-.03,2.73-.03,4.99v7.82c0,1.01-.12,1.95-.37,2.83s-.68,1.67-1.3,2.37c-.63.73-1.53,1.35-2.68,1.88s-2.67.88-4.54,1.05l-.35-2.41c1.29-.15,2.32-.34,3.08-.55.77-.22,1.42-.57,1.94-1.06.52-.48.88-1.07,1.11-1.77s.33-1.6.33-2.72c0-1.21,0-2.39,0-3.56s0-2.26,0-3.3c0-2.5-.01-4.32-.04-5.47-.02-1.15-.04-2.19-.05-3.11h2.9Z"/>
    <path class="cls-1" d="m46.85,22.93l-2.74,1.42c-.05-.13-.42-1-1.12-2.62-.7-1.62-1.63-3.7-2.78-6.24h-10.41c-1.24,2.73-2.19,4.85-2.86,6.35s-1.04,2.34-1.11,2.51l-2.35-1.27c.3-.61,1.56-3.29,3.77-8.06s4.5-9.77,6.88-15.01h2.29c2.34,5.25,4.65,10.33,6.91,15.25s3.44,7.48,3.53,7.68Zm-7.64-9.69c-.62-1.43-1.28-2.93-1.97-4.49-.69-1.56-1.41-3.19-2.17-4.89h-.07c-.59,1.3-1.3,2.89-2.13,4.77-.83,1.88-1.52,3.42-2.06,4.61v.02s8.41,0,8.41,0v-.02Z"/>
    <path class="cls-1" d="m67.67,8.38c0,1.71-.55,3.26-1.66,4.64-1.11,1.38-2.58,2.32-4.43,2.81-.8.21-1.66.36-2.61.46-.94.09-1.99.14-3.15.14l.04,7.44h-2.9c.01-.7.03-2.01.05-3.91.02-1.9.04-4.85.04-8.83,0-1.27,0-2.82-.02-4.66s-.04-3.88-.07-6.13c.5-.01,1-.02,1.48-.02h1.19c2.02,0,3.75.13,5.17.39,1.42.26,2.62.7,3.59,1.32,1.07.67,1.88,1.54,2.44,2.61.56,1.07.84,2.32.84,3.75Zm-2.99,0c0-1.21-.28-2.24-.83-3.08s-1.39-1.52-2.53-2.01c-.7-.3-1.46-.5-2.29-.57s-1.66-.11-2.53-.11h-.65c0,.13-.01,1.01-.04,2.64s-.04,2.92-.04,3.87c0,.87,0,1.89,0,3.08s0,1.86,0,2.02h.7c.79,0,1.62-.05,2.5-.16s1.64-.3,2.28-.58c1.1-.47,1.94-1.12,2.52-1.95s.87-1.88.87-3.13Z"/>
    <path class="cls-1" d="m94.66,22.93l-2.74,1.42c-.05-.13-.42-1-1.12-2.62-.7-1.62-1.63-3.7-2.78-6.24h-10.41c-1.24,2.73-2.19,4.85-2.86,6.35s-1.04,2.34-1.11,2.51l-2.35-1.27c.3-.61,1.56-3.29,3.77-8.06s4.5-9.77,6.88-15.01h2.29c2.34,5.25,4.65,10.33,6.91,15.25s3.44,7.48,3.53,7.68Zm-7.64-9.69c-.62-1.43-1.28-2.93-1.97-4.49-.69-1.56-1.41-3.19-2.17-4.89h-.07c-.59,1.3-1.3,2.89-2.13,4.77-.83,1.88-1.52,3.42-2.06,4.61v.02s8.41,0,8.41,0v-.02Z"/>
    <path class="cls-1" d="m121.02.33c-.02,1.84-.04,3.94-.06,6.31s-.03,4.07-.03,5.12c0,3.33.01,5.97.04,7.94s.04,3.01.04,3.14l-2.34,1.14c-3.54-4.78-6.85-9.09-9.92-12.94-3.08-3.85-4.85-6.07-5.33-6.67l-.04.02c0,3.14.02,7,.06,11.57s.07,7.21.08,7.92h-2.74c.01-.29.03-1.34.05-3.13s.04-4.29.04-7.49c0-1.28,0-2.97-.02-5.09s-.04-4.36-.07-6.72l2.67-1.27c.21.27,2.01,2.55,5.39,6.83s6.57,8.27,9.55,11.95l.04-.02c0-1.8-.02-4.84-.07-9.11s-.07-7.43-.07-9.49h2.74Z"/>
  </g>
  <polygon class="cls-3" points="174.56 108.93 168 108.93 119.6 165.93 119.6 173.66 174.56 108.93"/>
  <polygon class="cls-3" points="175.88 108.93 119.6 175.2 119.6 182.93 182.44 108.93 175.88 108.93"/>
  <polygon class="cls-3" points="183.75 108.93 119.6 184.47 119.6 192.19 190.31 108.93 183.75 108.93"/>
  <polygon class="cls-3" points="191.62 108.93 119.6 193.74 119.6 201.46 198.18 108.93 191.62 108.93"/>
  <polygon class="cls-3" points="119.6 203.01 119.6 210.73 206.05 108.93 199.49 108.93 119.6 203.01"/>
  <polygon class="cls-3" points="203.77 103.9 203.74 103.93 203.81 103.93 203.77 103.9"/>
  <polygon class="cls-3" points="0 125.39 6.59 125.39 80 42.23 80 34.68 0 125.39"/>
  <polygon class="cls-3" points="7.93 125.39 14.59 125.39 80 51.3 80 43.75 7.93 125.39"/>
  <polygon class="cls-3" points="15.93 125.39 22.6 125.39 80 60.37 80 52.81 15.93 125.39"/>
  <polygon class="cls-3" points="23.93 125.39 30.6 125.39 80 69.43 80 61.88 23.93 125.39"/>
  <polygon class="cls-3" points="80 78.5 80 70.94 31.94 125.39 38.6 125.39 80 78.5"/>
  <g>
    <rect class="cls-3" x="270.55" y="130.24" width="67" height="5"/>
    <rect class="cls-3" x="270.55" y="124.38" width="67" height="5"/>
    <rect class="cls-3" x="270.55" y="118.53" width="67" height="5"/>
  </g>
  <g>
    <path class="cls-3" d="m285.27,149.74c-6.07,3.45-13.45,4.47-20.28,2.8-6.86-1.64-12.85-5.89-16.46-11.7-3.67-5.77-4.84-12.84-3.21-19.43,1.59-6.63,5.92-12.46,11.89-16.01,5.95-3.63,13.3-4.86,20.16-3.37,6.66,1.4,12.58,5.26,16.38,10.63l3.49-3.7c-4.53-5.97-11.29-10.24-18.82-11.82-8.09-1.75-16.77-.29-23.78,3.98-7.1,4.23-12.26,11.2-14.17,19.11-1.95,7.89-.55,16.38,3.83,23.27,4.28,6.9,11.4,11.97,19.52,13.9,2.53.62,5.13.92,7.73.92,5.65,0,11.29-1.44,16.19-4.23,7.2-4.06,12.57-10.88,14.73-18.73.01-.04.02-.09.03-.13h-5.22c-2.01,6.06-6.32,11.3-12.01,14.5Z"/>
    <path class="cls-3" d="m303.42,135.63c-2.22,8.1-7.75,15.14-15.2,19.33-7.38,4.2-16.36,5.45-24.66,3.41-8.36-1.99-15.69-7.21-20.12-14.32-2.24-3.56-3.78-7.59-4.45-11.64-.68-4.08-.51-8.37.48-12.42.98-4.04,2.82-7.95,5.3-11.3,2.46-3.33,5.68-6.24,9.31-8.43,7.24-4.42,16.17-5.92,24.52-4.11,7.72,1.61,14.64,5.97,19.31,12.06l3.47-3.68c-5.38-6.7-13.14-11.48-21.73-13.27-9.57-2.08-19.83-.35-28.15,4.72-4.24,2.55-7.85,5.82-10.74,9.73-2.88,3.88-5,8.41-6.14,13.09-1.15,4.69-1.34,9.68-.55,14.42.77,4.7,2.55,9.37,5.14,13.48,5.11,8.22,13.56,14.24,23.18,16.53,2.99.74,6.07,1.1,9.14,1.1,6.68,0,13.35-1.71,19.16-5.02,8.59-4.83,14.99-12.98,17.55-22.35.16-.57.3-1.14.43-1.72h-5.15c-.03.13-.06.26-.1.4Z"/>
    <path class="cls-3" d="m309.21,137.22c-1.32,4.77-3.64,9.35-6.71,13.26-3.08,3.91-6.98,7.26-11.29,9.69-4.34,2.45-9.23,4.11-14.13,4.78-4.91.68-10.06.42-14.9-.75-4.86-1.17-9.55-3.3-13.57-6.16-4.05-2.87-7.58-6.6-10.22-10.8-2.67-4.24-4.5-9.03-5.29-13.87-.81-4.87-.61-9.99.57-14.82,1.17-4.81,3.35-9.46,6.31-13.44,2.92-3.95,6.73-7.41,11.02-9.99,4.27-2.58,9.1-4.37,13.97-5.18,4.88-.82,10.04-.71,14.91.33,4.88,1.04,9.63,3.04,13.73,5.78,3.18,2.12,6.07,4.77,8.49,7.75l3.46-3.67c-2.65-3.16-5.76-5.96-9.17-8.24-4.62-3.09-9.97-5.34-15.47-6.51-5.55-1.19-11.2-1.31-16.77-.37-5.57.93-10.86,2.89-15.73,5.83-4.84,2.91-9.15,6.82-12.45,11.29-3.35,4.51-5.82,9.78-7.15,15.23-1.34,5.47-1.56,11.29-.65,16.82.9,5.49,2.97,10.92,5.99,15.71,2.98,4.74,6.97,8.97,11.56,12.21,4.54,3.22,9.82,5.62,15.29,6.94,3.49.84,7.03,1.27,10.57,1.27,2.06,0,4.13-.14,6.19-.43,5.6-.77,10.95-2.58,15.9-5.38,4.88-2.75,9.29-6.54,12.76-10.95,3.48-4.42,6.11-9.61,7.6-15.02.3-1.09.55-2.2.76-3.32h-5.1c-.14.67-.3,1.33-.48,1.98Z"/>
    <path class="cls-3" d="m314.99,138.82c-1.53,5.53-4.22,10.84-7.78,15.37-3.55,4.51-8.06,8.39-13.05,11.2-5,2.83-10.62,4.73-16.27,5.51-5.74.8-11.5.51-17.14-.86-5.59-1.35-10.99-3.8-15.63-7.1-4.69-3.32-8.77-7.64-11.82-12.49-3.09-4.91-5.22-10.47-6.14-16.09-.94-5.66-.71-11.61.66-17.22,1.36-5.58,3.89-10.97,7.31-15.59,3.38-4.58,7.78-8.57,12.73-11.55,4.91-2.97,10.47-5.03,16.09-5.97,5.7-.96,11.47-.83,17.15.38,5.62,1.19,11.08,3.5,15.82,6.66,3.46,2.3,6.61,5.14,9.3,8.34l3.45-3.66c-2.91-3.37-6.28-6.38-9.97-8.84-5.33-3.56-11.23-6.04-17.55-7.39-6.3-1.34-12.7-1.49-19.01-.42-6.23,1.04-12.4,3.33-17.85,6.62-5.5,3.31-10.4,7.76-14.17,12.85-3.82,5.15-6.64,11.16-8.15,17.38-1.53,6.25-1.79,12.9-.74,19.22,1.03,6.27,3.39,12.48,6.84,17.94,3.39,5.4,7.94,10.21,13.16,13.91,5.22,3.71,11.06,6.36,17.35,7.88,3.95.96,7.96,1.44,11.98,1.44,2.34,0,4.68-.16,7.01-.49,6.27-.86,12.5-2.98,18.04-6.11,5.55-3.13,10.57-7.44,14.52-12.46,3.97-5.04,6.97-10.97,8.67-17.13.45-1.61.8-3.25,1.07-4.91h-5.07c-.22,1.21-.49,2.4-.82,3.58Z"/>
    <path class="cls-3" d="m320.78,140.41c-1.74,6.29-4.8,12.34-8.85,17.48-4.03,5.12-9.14,9.51-14.8,12.71-5.65,3.2-12.01,5.35-18.41,6.23-6.48.9-13,.58-19.37-.97-6.41-1.55-12.36-4.25-17.69-8.04-5.32-3.77-9.96-8.67-13.42-14.18-3.52-5.58-5.93-11.91-6.98-18.32-1.07-6.45-.81-13.24.75-19.62,1.54-6.34,4.42-12.47,8.32-17.73,3.84-5.2,8.83-9.73,14.45-13.11,5.55-3.36,11.85-5.69,18.21-6.75,6.45-1.08,12.97-.94,19.39.43,6.44,1.37,12.46,3.9,17.9,7.54,3.73,2.49,7.15,5.53,10.11,8.94l3.45-3.66c-3.17-3.59-6.81-6.8-10.78-9.44-5.96-3.98-12.57-6.77-19.63-8.27-7.04-1.5-14.19-1.66-21.25-.47-6.97,1.16-13.88,3.72-19.96,7.4-6.16,3.71-11.65,8.7-15.88,14.42-4.29,5.79-7.46,12.54-9.16,19.52-1.72,7.03-2.01,14.51-.83,21.62,1.16,7.06,3.82,14.03,7.68,20.17,3.8,6.06,8.91,11.46,14.76,15.6,5.85,4.15,12.38,7.12,19.41,8.82,4.42,1.07,8.9,1.61,13.39,1.61,2.61,0,5.23-.18,7.84-.54,7.01-.97,13.99-3.33,20.18-6.83,6.22-3.51,11.84-8.34,16.27-13.97,4.46-5.66,7.83-12.32,9.74-19.24.59-2.13,1.04-4.31,1.36-6.51h-5.06c-.28,1.75-.65,3.48-1.12,5.18Z"/>
  </g>
  <g>
    <path class="cls-2" d="m428.32,135.77c2.09-7.76.98-16.19-3.05-23.15-4.01-6.96-10.76-12.14-18.51-14.21-2.58-.7-5.24-1.03-7.9-1.03v4.99s.02,0,.03,0c2.21,0,4.42.29,6.57.87,6.49,1.73,12.13,6.06,15.48,11.88h0c3.36,5.81,4.29,12.86,2.54,19.35-1.73,6.49-6.06,12.13-11.88,15.48-3.87,2.24-8.3,3.4-12.75,3.4v5c5.31,0,10.61-1.39,15.25-4.08,6.96-4.01,12.14-10.76,14.21-18.51Z"/>
    <path class="cls-3" d="m392.26,152.49c-6.49-1.73-12.13-6.06-15.48-11.88-3.37-5.81-4.29-12.86-2.54-19.35,1.73-6.49,6.06-12.13,11.88-15.48,3.88-2.24,8.3-3.4,12.75-3.41v-4.99c-5.32,0-10.61,1.39-15.25,4.07-6.96,4.01-12.14,10.76-14.21,18.51-2.09,7.76-.98,16.19,3.04,23.14,4.01,6.96,10.76,12.14,18.52,14.21,2.57.69,5.22,1.03,7.86,1.03.01,0,.02,0,.04,0v-5c-2.22,0-4.44-.28-6.6-.86Z"/>
    <path class="cls-3" d="m390.71,158.29c-3.97-1.07-7.78-2.95-11.03-5.44-3.28-2.51-6-5.62-8.1-9.23-2.08-3.63-3.41-7.54-3.95-11.64-.54-4.06-.26-8.3.8-12.26,1.07-3.97,2.95-7.78,5.44-11.03,2.51-3.27,5.62-6,9.23-8.1,3.63-2.09,7.55-3.41,11.64-3.95,1.34-.18,2.71-.27,4.08-.27.01,0,.02,0,.03,0v-4.99c-1.6,0-3.19.09-4.76.3-4.74.62-9.28,2.16-13.49,4.58-4.19,2.43-7.79,5.59-10.7,9.38-2.89,3.76-5.07,8.17-6.3,12.77-1.23,4.6-1.55,9.51-.93,14.21.62,4.74,2.16,9.28,4.58,13.49,2.43,4.19,5.59,7.79,9.39,10.7,3.76,2.89,8.17,5.07,12.78,6.3,3.06.82,6.26,1.23,9.44,1.23v-5c-2.75,0-5.51-.35-8.15-1.06Z"/>
    <path class="cls-2" d="m403.62,164.05c4.74-.62,9.28-2.16,13.49-4.58,4.19-2.43,7.79-5.59,10.7-9.38,2.89-3.76,5.07-8.18,6.3-12.77,1.23-4.6,1.55-9.51.93-14.21-.62-4.74-2.16-9.28-4.57-13.48h0c-2.43-4.2-5.59-7.8-9.39-10.71-3.76-2.89-8.17-5.07-12.77-6.3-3.06-.82-6.26-1.22-9.45-1.23v4.99c2.75,0,5.51.36,8.15,1.07,3.97,1.07,7.78,2.95,11.03,5.44,3.27,2.51,6,5.61,8.1,9.23,2.08,3.63,3.41,7.55,3.95,11.64.54,4.05.26,8.29-.8,12.26-1.07,3.97-2.95,7.78-5.44,11.02-2.51,3.27-5.62,6-9.23,8.1-3.63,2.08-7.55,3.41-11.64,3.95-1.36.18-2.73.26-4.11.26v5s.03,0,.04,0c1.58,0,3.17-.1,4.72-.31Z"/>
    <path class="cls-2" d="m404.4,170c5.45-.71,10.88-2.55,15.71-5.33,4.81-2.79,9.12-6.57,12.46-10.93,3.36-4.38,5.9-9.52,7.34-14.87,1.43-5.35,1.8-11.07,1.08-16.54-.71-5.45-2.55-10.88-5.33-15.7h0c-2.79-4.82-6.57-9.13-10.93-12.47-4.38-3.36-9.52-5.9-14.87-7.34-3.56-.95-7.29-1.43-11-1.43v4.99c3.27,0,6.56.43,9.7,1.27,4.72,1.27,9.26,3.51,13.12,6.47,3.85,2.95,7.18,6.75,9.65,11,2.45,4.25,4.07,9.05,4.7,13.86.64,4.83.31,9.88-.95,14.6-1.27,4.72-3.51,9.26-6.47,13.12-2.95,3.85-6.75,7.19-10.99,9.64-4.26,2.45-9.05,4.07-13.86,4.7-1.61.21-3.25.31-4.89.31v5.01s.03,0,.04,0c1.85,0,3.69-.12,5.5-.36Z"/>
    <path class="cls-3" d="m389.16,164.09c-4.72-1.27-9.26-3.51-13.12-6.47-3.85-2.95-7.19-6.75-9.64-10.99-2.45-4.26-4.07-9.05-4.7-13.86-.64-4.83-.31-9.87.95-14.6,1.27-4.72,3.51-9.26,6.47-13.12,2.95-3.85,6.75-7.19,10.99-9.64,4.26-2.45,9.05-4.07,13.86-4.7,1.6-.21,3.22-.32,4.85-.32.01,0,.03,0,.04,0v-4.99c-1.86,0-3.72.11-5.54.35-5.45.71-10.88,2.55-15.71,5.33-4.81,2.79-9.12,6.57-12.46,10.93-3.36,4.38-5.9,9.52-7.34,14.87-1.43,5.35-1.81,11.07-1.08,16.54.71,5.45,2.55,10.88,5.33,15.71,2.79,4.81,6.57,9.12,10.93,12.46,4.38,3.36,9.52,5.9,14.87,7.34,3.56.95,7.29,1.44,11,1.44v-5.01c-3.27,0-6.56-.42-9.7-1.26Z"/>
    <path class="cls-3" d="m387.6,169.88c-5.47-1.47-10.74-4.07-15.22-7.51-4.47-3.42-8.34-7.83-11.19-12.75-2.84-4.93-4.73-10.49-5.46-16.08-.74-5.6-.36-11.46,1.11-16.93,1.47-5.48,4.07-10.74,7.51-15.22,3.42-4.47,7.83-8.34,12.75-11.19,4.93-2.84,10.49-4.73,16.08-5.45,1.86-.25,3.74-.37,5.63-.37.02,0,.03,0,.05,0v-4.99c-2.12,0-4.24.12-6.32.4-6.23.81-12.42,2.91-17.93,6.08-5.49,3.18-10.41,7.49-14.22,12.48-3.84,5-6.73,10.86-8.37,16.97-1.63,6.1-2.06,12.63-1.24,18.88.81,6.23,2.92,12.42,6.08,17.93,3.18,5.49,7.5,10.41,12.48,14.22,5,3.84,10.86,6.73,16.97,8.37,4.07,1.09,8.32,1.64,12.55,1.64v-5.01c-3.8,0-7.61-.49-11.26-1.46Z"/>
    <path class="cls-2" d="m405.18,175.95c6.23-.81,12.42-2.91,17.93-6.08,5.49-3.18,10.41-7.49,14.22-12.48,3.84-5,6.73-10.86,8.37-16.97,1.63-6.11,2.06-12.63,1.24-18.88-.81-6.23-2.92-12.43-6.08-17.92h0c-3.18-5.49-7.49-10.41-12.48-14.23-5-3.84-10.86-6.73-16.97-8.37-4.07-1.09-8.32-1.63-12.55-1.63v4.99c3.8,0,7.61.5,11.26,1.47,5.48,1.47,10.74,4.07,15.22,7.51,4.47,3.42,8.34,7.83,11.19,12.76,2.84,4.93,4.72,10.49,5.45,16.07.74,5.6.36,11.45-1.11,16.93-1.47,5.48-4.07,10.74-7.51,15.22-3.42,4.47-7.83,8.34-12.75,11.19-4.93,2.84-10.49,4.73-16.08,5.45-1.87.25-3.77.36-5.67.36v5.01s.03,0,.05,0c2.1,0,4.21-.14,6.27-.41Z"/>
    <path class="cls-2" d="m452.89,120.76c-.91-7-3.28-13.97-6.83-20.14h0c-3.57-6.17-8.42-11.7-14.02-15.99-5.62-4.31-12.21-7.56-19.07-9.4-4.57-1.22-9.35-1.83-14.1-1.83v4.99c4.32,0,8.66.57,12.81,1.68,6.23,1.67,12.22,4.62,17.32,8.54,5.09,3.9,9.5,8.92,12.74,14.52,3.23,5.61,5.38,11.93,6.21,18.29.84,6.37.4,13.04-1.26,19.26-1.67,6.23-4.63,12.22-8.54,17.32-3.9,5.09-8.92,9.5-14.52,12.74-5.61,3.23-11.93,5.38-18.29,6.21-2.13.28-4.29.41-6.45.4v5.01s.04,0,.06,0c2.36,0,4.72-.15,7.05-.46,7-.91,13.97-3.28,20.14-6.83,6.17-3.57,11.7-8.42,15.99-14.02,4.31-5.62,7.56-12.21,9.41-19.07,1.83-6.86,2.32-14.19,1.39-21.21Z"/>
    <path class="cls-3" d="m386.05,175.68c-6.23-1.67-12.22-4.63-17.32-8.54-5.09-3.9-9.5-8.92-12.74-14.52-3.23-5.61-5.38-11.93-6.21-18.3-.84-6.37-.41-13.03,1.26-19.26,1.67-6.23,4.63-12.22,8.54-17.32,3.9-5.09,8.92-9.5,14.52-12.73,5.61-3.23,11.93-5.38,18.3-6.21,2.11-.28,4.25-.42,6.4-.42.02,0,.03,0,.05,0v-4.99c-2.38,0-4.76.14-7.1.44-7,.91-13.97,3.28-20.15,6.83-6.17,3.57-11.7,8.42-15.99,14.02-4.31,5.62-7.56,12.21-9.41,19.07-1.84,6.86-2.32,14.2-1.39,21.21.91,7,3.28,13.97,6.83,20.15,3.57,6.17,8.42,11.69,14.02,15.99,5.62,4.31,12.21,7.56,19.07,9.4,4.57,1.22,9.35,1.84,14.1,1.85v-5.01c-4.32,0-8.66-.55-12.81-1.66Z"/>
  </g>
</svg>